<?xml version="1.0" standalone="no"?>
<!DOCTYPE svg PUBLIC "-//W3C//DTD SVG 20010904//EN"
 "http://www.w3.org/TR/2001/REC-SVG-20010904/DTD/svg10.dtd">
<svg version="1.0" xmlns="http://www.w3.org/2000/svg"
 width="623.000000pt" height="570.000000pt" viewBox="0 0 623.000000 570.000000"
 preserveAspectRatio="xMidYMid meet">

<g transform="translate(0.000000,570.000000) scale(0.100000,-0.100000)"
fill="#000000" stroke="none">
<path d="M2130 5693 c-353 -38 -671 -209 -889 -478 -88 -108 -126 -168 -296
-475 -188 -339 -347 -619 -538 -945 -161 -274 -213 -375 -255 -496 -115 -326
-105 -644 31 -978 26 -64 114 -229 224 -416 203 -348 366 -636 563 -990 73
-132 151 -267 173 -300 211 -315 480 -501 850 -587 90 -22 110 -22 1072 -25
1067 -4 1084 -3 1281 53 122 34 311 129 416 208 106 81 228 210 306 325 33 47
138 228 235 401 187 339 428 759 576 1010 149 250 216 409 257 610 25 119 25
364 0 480 -48 222 -98 337 -301 685 -190 324 -395 685 -575 1010 -145 262
-185 324 -271 430 -207 256 -498 419 -834 470 -84 12 -250 15 -1045 13 -520
-1 -961 -3 -980 -5z m2015 -338 c213 -40 377 -125 526 -274 104 -105 144 -165
319 -481 171 -307 402 -713 597 -1046 130 -222 177 -324 216 -463 30 -110 30
-372 0 -482 -39 -139 -86 -241 -216 -463 -199 -341 -392 -678 -579 -1014 -193
-349 -232 -407 -337 -513 -150 -149 -314 -235 -530 -275 -75 -14 -205 -16
-1026 -16 -837 0 -950 2 -1029 17 -214 40 -377 125 -527 274 -104 105 -144
165 -319 481 -170 306 -402 712 -597 1046 -130 222 -177 324 -216 463 -30 110
-30 372 0 482 33 118 81 230 146 342 313 538 498 862 772 1355 186 335 436
522 765 571 111 16 84 16 1051 14 788 -1 906 -3 984 -18z"/>
<path d="M2190 4390 l0 -160 135 0 135 0 0 -1395 0 -1395 -135 0 -135 0 0
-155 0 -155 498 0 c280 0 535 5 582 10 505 62 788 385 874 1000 49 347 49 959
1 1330 -71 539 -235 836 -541 981 -179 85 -313 99 -946 99 l-468 0 0 -160z
m1153 -175 c84 -22 134 -51 197 -114 158 -158 241 -454 271 -966 12 -211 7
-588 -11 -780 -52 -557 -192 -820 -472 -891 -44 -11 -130 -18 -290 -21 l-228
-5 0 1396 0 1396 238 0 c179 0 252 -4 295 -15z"/>
</g>
</svg>
